<svg width="390" height="844" viewBox="0 0 390 844" fill="none" xmlns="http://www.w3.org/2000/svg">
<g clip-path="url(#clip0_1_5)">
<rect width="390" height="844" fill="white"/>
<path d="M23.5 84.5C23.5 76.2157 30.2157 69.5 38.5 69.5H350.5C358.784 69.5 365.5 76.2157 365.5 84.5C365.5 92.7843 358.784 99.5 350.5 99.5H38.5C30.2157 99.5 23.5 92.7843 23.5 84.5Z" fill="#F6F6F6" stroke="#E8E8E8"/>
<path d="M253.056 80.632H261.168V81.736H253.056V80.632ZM253.36 83.832H260.832V84.92H253.36V83.832ZM252.56 87.192H261.392V88.312H252.56V87.192ZM256.432 81.016H257.6V92.28H256.432V81.016ZM259.296 77.544L260.464 77.928C259.984 78.904 259.44 80.024 258.976 80.744L258.048 80.408C258.464 79.64 259.008 78.392 259.296 77.544ZM253.744 78.008L254.72 77.656C255.264 78.504 255.792 79.64 255.984 80.376L254.944 80.792C254.768 80.04 254.256 78.872 253.744 78.008ZM247.36 82.408H252.128V83.368H247.36V82.408ZM247.44 78.136H252.096V79.096H247.44V78.136ZM247.36 84.552H252.128V85.512H247.36V84.552ZM246.608 80.232H252.688V81.224H246.608V80.232ZM247.936 86.712H252.128V91.384H247.936V90.376H251.072V87.704H247.936V86.712ZM247.344 86.712H248.384V92.12H247.344V86.712ZM272.464 79.336H273.536V90.776H272.464V79.336ZM269.296 78.84H276.864V91.96H275.744V79.96H270.384V92.088H269.296V78.84ZM269.888 84.392H276.24V85.496H269.888V84.392ZM269.888 90.104H276.192V91.208H269.888V90.104ZM265.312 85.096H266.384V92.264H265.312V85.096ZM265.152 77.56L266.224 77.992C265.616 79.176 264.832 80.6 264.208 81.496L263.36 81.112C263.984 80.184 264.736 78.632 265.152 77.56ZM267.12 79.4L268.144 79.896C267.024 81.672 265.44 83.944 264.208 85.32L263.456 84.888C264.688 83.48 266.24 81.096 267.12 79.4ZM262.592 80.984L263.2 80.184C264.064 80.904 265.056 81.928 265.488 82.616L264.848 83.544C264.432 82.808 263.44 81.72 262.592 80.984ZM266.672 83.064L267.584 82.664C268.288 83.704 268.992 85.08 269.264 85.976L268.304 86.44C268.048 85.544 267.36 84.12 266.672 83.064ZM262.48 84.632C263.936 84.552 266.096 84.408 268.24 84.248L268.256 85.224C266.256 85.4 264.208 85.592 262.656 85.736L262.48 84.632ZM266.96 86.936L267.888 86.648C268.352 87.624 268.8 88.904 268.992 89.752L267.984 90.088C267.84 89.24 267.408 87.928 266.96 86.936ZM263.472 86.696L264.512 86.888C264.304 88.392 263.92 89.944 263.424 90.968C263.216 90.84 262.736 90.616 262.464 90.52C262.992 89.544 263.296 88.104 263.472 86.696ZM278.816 81H283.936V82.136H278.816V81ZM281.088 77.56H282.192V92.264H281.088V77.56ZM281.056 81.704L281.808 81.96C281.312 84.504 280.24 87.656 279.104 89.256C278.96 88.936 278.672 88.488 278.48 88.216C279.536 86.776 280.608 83.992 281.056 81.704ZM282.112 83.24C282.496 83.672 283.856 85.64 284.16 86.104L283.488 87.048C283.12 86.264 282.016 84.376 281.6 83.752L282.112 83.24ZM285.52 81.352H291.616V82.376H285.52V81.352ZM288.528 78.648C287.616 80.008 285.92 81.512 284.176 82.456C284.048 82.152 283.776 81.72 283.568 81.464C285.36 80.616 287.072 79.048 287.936 77.592H289.04C290.176 79.192 291.968 80.632 293.648 81.368C293.424 81.64 293.168 82.088 293.008 82.408C291.376 81.56 289.552 80.072 288.528 78.648ZM285.536 84.808V87H291.552V84.808H285.536ZM284.48 83.848H292.656V87.992H284.48V83.848ZM287.952 81.96H289.056V86.2C289.056 88.504 288.32 90.952 284.032 92.36C283.936 92.104 283.584 91.656 283.376 91.464C287.44 90.168 287.952 88.168 287.952 86.168V81.96ZM289.216 87.368C290.144 89.768 291.504 90.664 293.552 91.352C293.28 91.608 292.976 92.008 292.848 92.36C290.624 91.512 289.168 90.376 288.192 87.592L289.216 87.368ZM301.36 87.88H302.56V92.312H301.36V87.88ZM301.36 77.56H302.544V82.04H301.36V77.56ZM300.768 82.328L301.888 82.872C300.96 83.736 299.824 84.664 298.896 85.304L298.016 84.808C298.912 84.152 300.112 83.096 300.768 82.328ZM304.224 83.368L305.312 83.96C303.504 85.432 301.04 87.128 299.088 88.216L298.24 87.64C300.192 86.536 302.72 84.728 304.224 83.368ZM296.784 84.76L297.584 84.072C298.784 84.664 300.304 85.576 301.088 86.248L300.256 87.016C299.52 86.344 298.016 85.384 296.784 84.76ZM304.048 86.024L304.848 85.384C306.256 86.216 308.032 87.448 308.928 88.296L308.08 89.032C307.232 88.184 305.472 86.872 304.048 86.024ZM304.096 89.448L305.008 88.824C306.384 89.496 308.144 90.568 309.056 91.352L308.064 92.072C307.232 91.288 305.504 90.168 304.096 89.448ZM295.04 87.384C297.968 87.384 302.8 87.32 307.36 87.224L307.296 88.184C302.864 88.312 298.144 88.456 295.104 88.488L295.04 87.384ZM298.624 88.808L299.76 89.224C298.688 90.328 297.04 91.432 295.648 92.12C295.44 91.896 294.992 91.48 294.704 91.272C296.128 90.68 297.664 89.752 298.624 88.808ZM295.216 78.984H308.736V80.04H295.216V78.984ZM295.168 81.576H308.88V84.584H307.696V82.616H296.304V84.584H295.168V81.576Z" fill="#BDBDBD"/>
<path d="M80.696 81.64H81.8V92.28H80.696V81.64ZM84.04 86.568H85.128V91.544H84.04V86.568ZM84.536 86.568H89.992V90.968H84.536V90.2H88.92V87.352H84.536V86.568ZM81.256 81.64H86.312V85.768H81.256V84.968H85.224V82.44H81.256V81.64ZM81.304 83.32H85.608V84.072H81.304V83.32ZM84.552 88.376H89.432V89.128H84.552V88.376ZM88.328 83.32H92.792V84.072H88.328V83.32ZM92.648 81.64V82.44H88.776V84.968H92.648V85.768H87.672V81.64H92.648ZM92.36 81.64H93.48V90.904C93.48 91.576 93.336 91.912 92.872 92.088C92.408 92.264 91.608 92.28 90.408 92.28C90.36 91.976 90.184 91.512 90.04 91.192C90.936 91.24 91.768 91.224 92.024 91.224C92.28 91.208 92.36 91.128 92.36 90.904V81.64ZM81.608 78.808H86.776V79.752H81.608V78.808ZM87.864 78.808H94.152V79.752H87.864V78.808ZM81.912 77.496L83.048 77.784C82.456 79.192 81.512 80.568 80.584 81.464C80.36 81.288 79.88 80.952 79.592 80.808C80.552 79.976 81.416 78.744 81.912 77.496ZM88.264 77.496L89.416 77.768C88.84 79.176 87.8 80.488 86.792 81.336C86.552 81.16 86.04 80.872 85.752 80.728C86.808 79.944 87.768 78.76 88.264 77.496ZM82.504 79.576L83.512 79.304C83.88 79.848 84.264 80.6 84.424 81.08L83.368 81.384C83.224 80.904 82.856 80.136 82.504 79.576ZM89.352 79.56L90.376 79.24C90.872 79.784 91.416 80.552 91.656 81.08L90.6 81.432C90.376 80.92 89.848 80.136 89.352 79.56ZM99.144 81.848V83.432H107.048V81.848H99.144ZM99.144 79.304V80.888H107.048V79.304H99.144ZM97.96 78.312H108.264V84.44H97.96V78.312ZM98.856 85.816H108.456V86.888H98.856V85.816ZM108.152 85.816H109.368C109.368 85.816 109.336 86.184 109.304 86.344C109 89.944 108.696 91.336 108.2 91.848C107.896 92.152 107.576 92.264 107.112 92.28C106.696 92.328 105.928 92.312 105.128 92.264C105.096 91.96 104.984 91.512 104.792 91.224C105.576 91.304 106.328 91.304 106.616 91.304C106.888 91.304 107.048 91.288 107.192 91.128C107.576 90.776 107.88 89.416 108.152 86.008V85.816ZM100.072 83.944L101.224 84.312C100.072 86.184 98.264 87.896 96.552 89C96.36 88.776 95.896 88.328 95.608 88.136C97.368 87.16 99.064 85.608 100.072 83.944ZM101.816 86.136L102.952 86.488C101.768 88.744 99.832 90.696 97.896 91.96C97.704 91.736 97.24 91.304 96.968 91.096C98.952 89.992 100.76 88.168 101.816 86.136ZM105.128 86.216L106.264 86.488C105.432 88.92 104.008 91.016 102.376 92.376C102.168 92.168 101.688 91.8 101.416 91.624C103.064 90.392 104.392 88.424 105.128 86.216ZM111.816 81H116.936V82.136H111.816V81ZM114.088 77.56H115.192V92.264H114.088V77.56ZM114.056 81.704L114.808 81.96C114.312 84.504 113.24 87.656 112.104 89.256C111.96 88.936 111.672 88.488 111.48 88.216C112.536 86.776 113.608 83.992 114.056 81.704ZM115.112 83.24C115.496 83.672 116.856 85.64 117.16 86.104L116.488 87.048C116.12 86.264 115.016 84.376 114.6 83.752L115.112 83.24ZM118.52 81.352H124.616V82.376H118.52V81.352ZM121.528 78.648C120.616 80.008 118.92 81.512 117.176 82.456C117.048 82.152 116.776 81.72 116.568 81.464C118.36 80.616 120.072 79.048 120.936 77.592H122.04C123.176 79.192 124.968 80.632 126.648 81.368C126.424 81.64 126.168 82.088 126.008 82.408C124.376 81.56 122.552 80.072 121.528 78.648ZM118.536 84.808V87H124.552V84.808H118.536ZM117.48 83.848H125.656V87.992H117.48V83.848ZM120.952 81.96H122.056V86.2C122.056 88.504 121.32 90.952 117.032 92.36C116.936 92.104 116.584 91.656 116.376 91.464C120.44 90.168 120.952 88.168 120.952 86.168V81.96ZM122.216 87.368C123.144 89.768 124.504 90.664 126.552 91.352C126.28 91.608 125.976 92.008 125.848 92.36C123.624 91.512 122.168 90.376 121.192 87.592L122.216 87.368ZM134.36 87.88H135.56V92.312H134.36V87.88ZM134.36 77.56H135.544V82.04H134.36V77.56ZM133.768 82.328L134.888 82.872C133.96 83.736 132.824 84.664 131.896 85.304L131.016 84.808C131.912 84.152 133.112 83.096 133.768 82.328ZM137.224 83.368L138.312 83.96C136.504 85.432 134.04 87.128 132.088 88.216L131.24 87.64C133.192 86.536 135.72 84.728 137.224 83.368ZM129.784 84.76L130.584 84.072C131.784 84.664 133.304 85.576 134.088 86.248L133.256 87.016C132.52 86.344 131.016 85.384 129.784 84.76ZM137.048 86.024L137.848 85.384C139.256 86.216 141.032 87.448 141.928 88.296L141.08 89.032C140.232 88.184 138.472 86.872 137.048 86.024ZM137.096 89.448L138.008 88.824C139.384 89.496 141.144 90.568 142.056 91.352L141.064 92.072C140.232 91.288 138.504 90.168 137.096 89.448ZM128.04 87.384C130.968 87.384 135.8 87.32 140.36 87.224L140.296 88.184C135.864 88.312 131.144 88.456 128.104 88.488L128.04 87.384ZM131.624 88.808L132.76 89.224C131.688 90.328 130.04 91.432 128.648 92.12C128.44 91.896 127.992 91.48 127.704 91.272C129.128 90.68 130.664 89.752 131.624 88.808ZM128.216 78.984H141.736V80.04H128.216V78.984ZM128.168 81.576H141.88V84.584H140.696V82.616H129.304V84.584H128.168V81.576Z" fill="#BDBDBD"/>
<path d="M25 84.5C25 76.6244 31.3844 70.24 39.26 70.24H182.24C190.116 70.24 196.5 76.6244 196.5 84.5C196.5 92.3756 190.116 98.76 182.24 98.76H39.26C31.3844 98.76 25 92.3756 25 84.5Z" fill="white"/>
<path d="M80.584 81.592H82.328V92.424H80.584V81.592ZM83.96 86.52H85.672V91.592H83.96V86.52ZM84.728 86.52H90.024V91.032H84.728V89.976H88.344V87.592H84.728V86.52ZM81.512 81.592H86.584V85.912H81.512V84.808H84.856V82.712H81.512V81.592ZM81.528 83.24H85.352V84.264H81.528V83.24ZM84.728 88.248H89.112V89.288H84.728V88.248ZM88.584 83.24H92.504V84.264H88.584V83.24ZM92.28 81.592V82.712H89.256V84.808H92.28V85.912H87.528V81.592H92.28ZM91.848 81.592H93.64V90.504C93.64 91.4 93.464 91.864 92.888 92.136C92.312 92.408 91.464 92.44 90.28 92.424C90.216 91.944 89.976 91.224 89.752 90.76C90.472 90.808 91.288 90.792 91.528 90.792C91.768 90.776 91.848 90.712 91.848 90.488V81.592ZM81.72 78.552H86.76V79.992H81.72V78.552ZM88.152 78.552H94.296V79.992H88.152V78.552ZM81.784 77.288L83.576 77.768C82.952 79.192 81.928 80.632 80.984 81.528C80.616 81.224 79.848 80.728 79.416 80.488C80.392 79.704 81.288 78.488 81.784 77.288ZM88.328 77.288L90.152 77.736C89.56 79.144 88.52 80.52 87.56 81.368C87.16 81.096 86.344 80.664 85.88 80.472C86.92 79.704 87.848 78.504 88.328 77.288ZM82.312 79.752L83.896 79.336C84.264 79.848 84.68 80.552 84.856 81.032L83.192 81.496C83.048 81.032 82.664 80.296 82.312 79.752ZM89.48 79.752L91.112 79.304C91.56 79.816 92.088 80.552 92.328 81.048L90.616 81.528C90.408 81.048 89.928 80.296 89.48 79.752ZM99.688 82.072V83.064H106.424V82.072H99.688ZM99.688 79.64V80.632H106.424V79.64H99.688ZM97.8 78.104H108.376V84.616H97.8V78.104ZM98.792 85.576H108.152V87.256H98.792V85.576ZM107.72 85.576H109.672C109.672 85.576 109.64 86.088 109.592 86.328C109.256 89.816 108.888 91.272 108.376 91.832C107.976 92.232 107.576 92.376 107.048 92.424C106.616 92.488 105.864 92.488 105.048 92.456C105.016 91.976 104.84 91.272 104.552 90.824C105.224 90.904 105.864 90.904 106.152 90.904C106.424 90.904 106.568 90.872 106.744 90.696C107.096 90.36 107.448 89.016 107.72 85.848V85.576ZM99.768 83.768L101.608 84.36C100.44 86.328 98.584 88.104 96.808 89.208C96.488 88.84 95.768 88.136 95.352 87.832C97.128 86.92 98.824 85.416 99.768 83.768ZM101.336 86.168L103.144 86.712C101.976 88.952 100.008 90.888 98.056 92.088C97.752 91.72 97.048 91.032 96.632 90.712C98.584 89.736 100.376 88.056 101.336 86.168ZM104.616 86.28L106.424 86.712C105.592 89.112 104.136 91.24 102.52 92.552C102.2 92.232 101.432 91.64 101.016 91.368C102.632 90.248 103.928 88.36 104.616 86.28ZM111.704 80.712H116.92V82.504H111.704V80.712ZM113.688 77.416H115.448V92.44H113.688V77.416ZM113.688 81.944L114.76 82.312C114.312 84.856 113.368 87.96 112.232 89.592C112.04 89.08 111.64 88.344 111.352 87.88C112.376 86.488 113.288 83.976 113.688 81.944ZM115.368 83.16C115.72 83.576 117 85.512 117.272 85.944L116.28 87.432C115.928 86.504 115.032 84.712 114.616 83.96L115.368 83.16ZM118.712 81.096H124.552V82.68H118.712V81.096ZM121.576 79.08C120.696 80.376 119.048 81.8 117.384 82.648C117.192 82.152 116.792 81.448 116.488 81.032C118.2 80.296 119.816 78.776 120.648 77.432H122.376C123.496 78.968 125.144 80.312 126.824 80.952C126.456 81.416 126.088 82.104 125.832 82.632C124.264 81.864 122.504 80.408 121.576 79.08ZM119.128 85.16V86.664H124.12V85.16H119.128ZM117.464 83.704H125.848V88.152H117.464V83.704ZM120.712 82.104H122.44V86.184C122.44 88.552 121.688 91.16 117.432 92.536C117.272 92.136 116.728 91.4 116.408 91.096C120.296 89.896 120.712 88.024 120.712 86.136V82.104ZM122.552 87.192C123.56 89.592 124.888 90.36 126.712 90.92C126.28 91.32 125.8 91.944 125.608 92.504C123.528 91.704 122.024 90.584 120.936 87.528L122.552 87.192ZM133.992 88.072H135.896V92.44H133.992V88.072ZM133.976 77.416H135.88V82.024H133.976V77.416ZM133.544 82.312L135.288 83.128C134.328 83.992 133.224 84.856 132.344 85.416L131 84.696C131.848 84.072 132.936 83.064 133.544 82.312ZM137.016 83.336L138.728 84.264C136.744 85.752 134.152 87.368 132.12 88.392L130.856 87.512C132.904 86.456 135.464 84.712 137.016 83.336ZM129.592 85L130.84 83.928C131.992 84.488 133.528 85.384 134.312 86.056L132.968 87.256C132.264 86.584 130.776 85.624 129.592 85ZM137.096 86.264L138.36 85.288C139.624 86.088 141.32 87.288 142.168 88.12L140.824 89.224C140.04 88.408 138.392 87.112 137.096 86.264ZM136.808 89.72L138.28 88.76C139.528 89.416 141.288 90.456 142.216 91.192L140.632 92.28C139.832 91.544 138.12 90.456 136.808 89.72ZM127.976 87.128C130.968 87.144 135.848 87.096 140.424 87.032L140.328 88.488C135.928 88.648 131.208 88.792 128.072 88.856L127.976 87.128ZM131.24 88.808L133.064 89.496C132.024 90.584 130.392 91.688 129.032 92.328C128.696 91.96 127.992 91.304 127.56 90.984C128.936 90.488 130.392 89.656 131.24 88.808ZM128.152 78.664H141.8V80.312H128.152V78.664ZM128.024 81.288H141.992V84.616H140.104V82.904H129.832V84.616H128.024V81.288Z" fill="#5DB075"/>
<path d="M23.5 131C23.5 117.469 34.469 106.5 48 106.5H341C354.531 106.5 365.5 117.469 365.5 131C365.5 144.531 354.531 155.5 341 155.5H48C34.469 155.5 23.5 144.531 23.5 131Z" fill="#F6F6F6" stroke="#E8E8E8"/>
<path d="M40.024 126.936H53.992V128.152H40.024V126.936ZM43.224 134.072H50.68V135.288H43.224V134.072ZM46.344 123.576H47.608V138.28H46.344V123.576ZM45.976 127.336L47.048 127.704C45.624 131.096 43.112 134.152 40.344 135.768C40.152 135.464 39.752 135.016 39.48 134.776C42.152 133.384 44.696 130.408 45.976 127.336ZM48.008 127.384C49.272 130.424 51.784 133.336 54.552 134.664C54.248 134.92 53.832 135.4 53.64 135.736C50.808 134.168 48.344 131.112 46.936 127.752L48.008 127.384ZM64.008 126.088C63.8 127.752 63.48 129.624 62.984 131.336C62.008 134.616 60.728 136.312 59.256 136.312C57.816 136.312 56.392 134.68 56.392 132.024C56.392 128.552 59.48 125.528 63.4 125.528C67.144 125.528 69.528 128.168 69.528 131.416C69.528 134.76 67.32 137 63.512 137.496L62.776 136.312C63.288 136.264 63.768 136.2 64.152 136.12C66.2 135.656 68.216 134.12 68.216 131.352C68.216 128.792 66.44 126.68 63.368 126.68C59.848 126.68 57.656 129.576 57.656 131.928C57.656 133.944 58.568 134.84 59.288 134.84C60.04 134.84 60.904 133.752 61.72 131.048C62.184 129.528 62.52 127.72 62.68 126.056L64.008 126.088ZM77.64 129.672C79.688 130.872 82.312 132.712 83.896 133.992L82.952 135.112C81.48 133.768 78.744 131.8 76.76 130.568L77.64 129.672ZM84.952 126.76C84.824 126.984 84.664 127.352 84.584 127.608C84.104 129.24 83.096 131.368 81.688 133.096C80.232 134.888 78.152 136.6 75.112 137.72L73.976 136.712C76.952 135.816 79.128 134.12 80.568 132.408C81.8 130.936 82.808 128.904 83.176 127.416H77.256L77.768 126.264H82.856C83.288 126.264 83.64 126.216 83.896 126.12L84.952 126.76ZM79.56 124.44C79.288 124.856 79 125.4 78.84 125.704C77.896 127.464 76.088 129.88 73.528 131.64L72.472 130.824C75.208 129.112 76.856 126.712 77.592 125.24C77.752 124.968 78.008 124.392 78.104 123.976L79.56 124.44ZM88.376 131.224C91.144 130.488 93.576 129.352 95.352 128.248C97.032 127.192 98.632 125.816 99.736 124.472L100.808 125.48C99.432 126.904 97.752 128.248 95.88 129.416C94.12 130.504 91.576 131.672 89 132.472L88.376 131.224ZM95.096 128.904L96.472 128.488V135.8C96.472 136.392 96.504 137.192 96.584 137.496H95C95.048 137.192 95.096 136.392 95.096 135.8V128.904ZM108.376 135.592C108.376 134.696 108.376 127.624 108.376 126.296C108.376 125.832 108.344 125.128 108.264 124.616H109.832C109.768 125.112 109.72 125.8 109.72 126.296C109.72 128.776 109.736 134.84 109.736 135.592C109.736 136.104 109.768 136.968 109.832 137.496H108.28C108.36 136.984 108.376 136.184 108.376 135.592ZM109.432 128.824C111.544 129.432 114.776 130.664 116.552 131.528L115.992 132.888C114.168 131.912 111.176 130.776 109.432 130.232V128.824ZM127.368 136.664C127.432 136.424 127.48 136.088 127.48 135.768C127.48 135.032 127.48 127.192 127.48 126.184C127.48 125.576 127.4 125.128 127.4 125H128.872C128.856 125.128 128.792 125.592 128.792 126.2C128.792 127.192 128.792 134.936 128.792 135.416C130.28 134.744 132.248 133.288 133.464 131.48L134.232 132.584C132.84 134.456 130.632 136.088 128.776 137.016C128.504 137.144 128.344 137.288 128.216 137.368L127.368 136.664ZM120.04 136.6C121.4 135.64 122.344 134.216 122.824 132.664C123.304 131.192 123.304 128.008 123.304 126.216C123.304 125.752 123.272 125.4 123.192 125.064H124.664C124.648 125.24 124.584 125.736 124.584 126.2C124.584 127.976 124.536 131.416 124.104 133.016C123.624 134.728 122.6 136.28 121.256 137.4L120.04 136.6ZM142.36 124.36C142.216 124.984 142.04 125.864 141.624 126.936C141.224 127.912 140.632 128.984 139.992 129.816C140.616 129.448 141.528 129.224 142.232 129.224C143.464 129.224 144.424 129.96 144.424 131.256C144.424 132.088 144.456 133.928 144.472 134.92H143.24C143.304 134.072 143.32 132.424 143.304 131.592C143.288 130.664 142.648 130.232 141.816 130.232C140.792 130.232 139.784 130.744 139.048 131.4C138.584 131.848 138.136 132.424 137.608 133.08L136.504 132.264C138.808 130.056 139.88 128.2 140.424 126.84C140.776 125.96 141 125 141.048 124.248L142.36 124.36ZM136.872 126.088C137.736 126.2 138.84 126.248 139.576 126.248C141.736 126.248 144.504 126.12 146.76 125.72V126.904C144.52 127.24 141.544 127.384 139.512 127.384C138.824 127.384 137.768 127.352 136.872 127.288V126.088ZM149.096 129.944C148.696 130.072 148.12 130.296 147.688 130.456C146.552 130.904 145.032 131.512 143.48 132.312C141.896 133.144 140.776 134.008 140.776 135.112C140.776 136.36 142.008 136.552 143.656 136.552C144.904 136.552 146.632 136.408 148.04 136.152L147.992 137.448C146.776 137.592 145 137.72 143.608 137.72C141.336 137.72 139.496 137.224 139.496 135.288C139.496 133.336 141.48 132.136 143.384 131.16C144.904 130.376 146.2 129.88 147.256 129.384C147.736 129.16 148.136 128.984 148.584 128.76L149.096 129.944ZM154.632 124.536H159.16V125.752H154.632V124.536ZM158.552 124.536H159.784C159.784 127.4 160.136 133.48 166.456 137.224C166.184 137.432 165.704 137.944 165.48 138.232C159.08 134.36 158.552 127.544 158.552 124.536ZM158.104 127.672L159.464 127.928C158.312 132.808 156.2 136.184 152.664 138.264C152.44 138.008 151.896 137.512 151.576 137.288C155.128 135.432 157.128 132.2 158.104 127.672ZM168.312 127.064H180.728V128.28H168.312V127.064ZM180.264 127.064H181.512C181.512 127.064 181.496 127.512 181.48 127.704C181.112 134.328 180.776 136.712 180.072 137.512C179.688 137.976 179.304 138.104 178.696 138.152C178.136 138.216 177.112 138.184 176.12 138.12C176.104 137.768 175.944 137.24 175.72 136.888C176.808 136.984 177.832 137 178.232 137C178.584 137 178.776 136.952 178.984 136.76C179.592 136.168 179.944 133.672 180.264 127.32V127.064ZM173.544 123.592H174.808V126.376C174.808 130.024 174.36 134.968 168.76 138.344C168.584 138.056 168.136 137.608 167.848 137.4C173.16 134.232 173.544 129.688 173.544 126.376V123.592Z" fill="#BDBDBD"/>
<path fill-rule="evenodd" clip-rule="evenodd" d="M303.804 17.4999H302.637C301.993 17.4999 301.471 18.0036 301.471 18.6249V28.3749C301.471 28.9963 301.993 29.4999 302.637 29.4999H303.804C304.448 29.4999 304.971 28.9963 304.971 28.3749V18.6249C304.971 18.0036 304.448 17.4999 303.804 17.4999ZM297.147 20.1251H298.314C298.958 20.1251 299.48 20.6288 299.48 21.2501V28.3751C299.48 28.9964 298.958 29.5001 298.314 29.5001H297.147C296.503 29.5001 295.98 28.9964 295.98 28.3751V21.2501C295.98 20.6288 296.503 20.1251 297.147 20.1251ZM292.824 22.7499H291.657C291.013 22.7499 290.49 23.2535 290.49 23.8749V28.3749C290.49 28.9962 291.013 29.4999 291.657 29.4999H292.824C293.468 29.4999 293.99 28.9962 293.99 28.3749V23.8749C293.99 23.2535 293.468 22.7499 292.824 22.7499ZM287.333 24.9998H286.167C285.522 24.9998 285 25.5035 285 26.1248V28.3748C285 28.9961 285.522 29.4998 286.167 29.4998H287.333C287.978 29.4998 288.5 28.9961 288.5 28.3748V26.1248C288.5 25.5035 287.978 24.9998 287.333 24.9998Z" fill="black"/>
<path fill-rule="evenodd" clip-rule="evenodd" d="M320.471 19.846C322.938 19.8461 325.31 20.8167 327.097 22.5571C327.232 22.6915 327.447 22.6898 327.58 22.5533L328.867 21.2234C328.934 21.1542 328.971 21.0604 328.971 20.9629C328.97 20.8653 328.932 20.772 328.864 20.7036C324.172 16.0988 316.77 16.0988 312.078 20.7036C312.01 20.772 311.971 20.8652 311.971 20.9628C311.97 21.0603 312.007 21.1541 312.074 21.2234L313.362 22.5533C313.494 22.69 313.709 22.6917 313.844 22.5571C315.632 20.8166 318.004 19.846 320.471 19.846ZM320.471 24.1727C321.826 24.1726 323.133 24.6884 324.138 25.62C324.274 25.7522 324.488 25.7493 324.62 25.6135L325.905 24.2836C325.973 24.2139 326.011 24.1192 326.01 24.0209C326.009 23.9226 325.969 23.8287 325.9 23.7604C322.841 20.8463 318.104 20.8463 315.045 23.7604C314.975 23.8287 314.936 23.9226 314.935 24.021C314.934 24.1193 314.972 24.214 315.04 24.2836L316.325 25.6135C316.457 25.7493 316.671 25.7522 316.807 25.62C317.811 24.689 319.117 24.1732 320.471 24.1727ZM323.046 27.084C323.048 27.1826 323.01 27.2777 322.941 27.3468L320.718 29.6445C320.653 29.712 320.564 29.75 320.471 29.75C320.378 29.75 320.289 29.712 320.224 29.6445L318.001 27.3468C317.932 27.2776 317.894 27.1825 317.896 27.0839C317.898 26.9853 317.94 26.8919 318.011 26.8258C319.431 25.596 321.511 25.596 322.931 26.8258C323.002 26.892 323.044 26.9854 323.046 27.084Z" fill="black"/>
<rect opacity="0.4" x="336.471" y="17.5" width="24" height="12" rx="3.5" stroke="black"/>
<path opacity="0.5" d="M361.971 21.5V25.5C362.777 25.1612 363.301 24.3731 363.301 23.5C363.301 22.6269 362.777 21.8388 361.971 21.5Z" fill="black"/>
<rect x="337.971" y="19" width="17" height="9" rx="2" fill="black"/>
<path d="M52.0166 17.7231C49.4185 17.7231 47.5674 19.4995 47.5674 21.9316V21.9482C47.5674 24.2227 49.1777 25.8994 51.4771 25.8994C53.1206 25.8994 54.1665 25.061 54.6064 24.1147H54.7725C54.7725 24.2061 54.7642 24.2974 54.7642 24.3887C54.6729 26.6797 53.8677 28.5391 51.9668 28.5391C50.9126 28.5391 50.1738 27.9912 49.8584 27.1528L49.8335 27.0698H47.7251L47.7417 27.1611C48.1235 28.9956 49.7671 30.2988 51.9668 30.2988C54.98 30.2988 56.7979 27.9082 56.7979 23.874V23.8574C56.7979 19.541 54.5732 17.7231 52.0166 17.7231ZM52.0083 24.2559C50.647 24.2559 49.6592 23.2598 49.6592 21.8735V21.8569C49.6592 20.5205 50.7134 19.4663 52.0332 19.4663C53.3613 19.4663 54.3989 20.5371 54.3989 21.9067V21.9233C54.3989 23.2764 53.3613 24.2559 52.0083 24.2559ZM60.0664 22.2388C60.8301 22.2388 61.3862 21.6577 61.3862 20.9272C61.3862 20.1885 60.8301 19.6157 60.0664 19.6157C59.311 19.6157 58.7466 20.1885 58.7466 20.9272C58.7466 21.6577 59.311 22.2388 60.0664 22.2388ZM60.0664 28.3979C60.8301 28.3979 61.3862 27.8252 61.3862 27.0864C61.3862 26.3477 60.8301 25.7749 60.0664 25.7749C59.311 25.7749 58.7466 26.3477 58.7466 27.0864C58.7466 27.8252 59.311 28.3979 60.0664 28.3979ZM69.1455 30H71.1958V27.7007H72.8062V25.9326H71.1958V18.022H68.166C66.5391 20.4956 64.8374 23.2515 63.2852 25.9492V27.7007H69.1455V30ZM65.2773 25.9824V25.8579C66.4395 23.8242 67.8257 21.6079 69.0542 19.7319H69.1787V25.9824H65.2773ZM77.27 30H79.4116V18.022H77.2783L74.1489 20.2217V22.2388L77.1289 20.1304H77.27V30Z" fill="black"/>
<rect y="760.5" width="390" height="82" fill="#FAFAFA"/>
<rect x="127" y="828.5" width="134" height="5" rx="2.5" fill="black"/>
<rect x="27" y="775" width="32" height="32" rx="16" fill="#5DB075"/>
<rect x="102" y="775" width="32" height="32" rx="16" fill="#E8E8E8"/>
<rect x="177" y="775" width="32" height="32" rx="16" fill="#E8E8E8"/>
<rect x="252" y="775" width="32" height="32" rx="16" fill="#E8E8E8"/>
<rect x="327" y="775" width="32" height="32" rx="16" fill="#E8E8E8"/>
<rect width="390" height="0.5" transform="matrix(1 0 0 -1 0 760.5)" fill="#BDC5CD"/>
</g>
<defs>
<clipPath id="clip0_1_5">
<rect width="390" height="844" fill="white"/>
</clipPath>
</defs>
</svg>
